Coordinates
version=1
nRows=24
nColumns=24
inDegrees=yes

Units are S.I. units (second, meters, Newtons, ...)
Angles are in degrees.

endheader
time	pelvis_tilt	pelvis_list	pelvis_rotation	pelvis_tx	pelvis_ty	pelvis_tz	hip_flexion_r	hip_adduction_r	hip_rotation_r	knee_angle_r	ankle_angle_r	subtalar_angle_r	mtp_angle_r	hip_flexion_l	hip_adduction_l	hip_rotation_l	knee_angle_l	ankle_angle_l	subtalar_angle_l	mtp_angle_l	lumbar_extension	lumbar_bending	lumbar_rotation
      0.00000000	      1.24555216	     -4.41444832	     -3.08459275	      0.12049924	      0.91837835	      0.02875372	    -12.49991832	      8.27991034	      0.79377942	     -9.33738770	     10.49366874	      1.83814024	      0.00000000	     23.30563020	     -4.65001275	     -2.05413142	     -9.38781355	      1.90036919	     -2.89225641	      0.00000000	    -13.07334644	      4.32151311	      3.09687748
      0.01000000	      1.01161924	     -4.58627043	     -3.06775432	      0.12038846	      0.91642004	      0.02771838	    -12.80835812	      8.34314727	      0.77522197	     -9.61425297	     10.65820424	      1.93310209	      0.00000000	     23.04400969	     -4.70340089	     -1.87935396	     -7.25219822	      2.60818114	     -2.79744218	      0.00000000	    -12.84580270	      4.60657109	      3.15152077
      0.02000000	      0.88176606	     -4.67861949	     -3.05493356	      0.12063296	      0.91480150	      0.02659935	    -13.20586533	      8.30415588	      0.70207484	     -9.97608190	     10.76762382	      2.23997632	      0.00000000	     22.75332580	     -4.63467838	     -1.86725902	     -5.76170656	      3.18856744	     -1.99706282	      0.00000000	    -12.68628362	      4.80180322	      3.16155732
      0.03000000	      0.87520686	     -4.76837104	     -3.10197677	      0.12108742	      0.91322364	      0.02556611	    -13.70031297	      8.25513593	      0.75405995	    -10.45914088	     10.82956601	      2.31803394	      0.00000000	     22.37179654	     -4.57408776	     -2.26435874	     -4.87096895	      3.78565251	     -0.65169379	      0.00000000	    -12.65555991	      4.96522143	      3.23956008
      0.04000000	      0.89520505	     -4.80245632	     -3.13017543	      0.12169189	      0.91158312	      0.02443558	    -14.17214799	      8.14224825	      0.76999531	    -11.03637357	     10.91482559	      2.44663418	      0.00000000	     22.10717739	     -4.43508104	     -2.74791717	     -4.81984337	      4.52806722	      0.00404670	      0.00000000	    -12.62516005	      5.07939756	      3.25222747
      0.05000000	      0.86354105	     -4.68494508	     -3.14325604	      0.12246980	      0.91016124	      0.02309920	    -14.51372214	      7.85876090	      0.63216064	    -11.73664896	     10.90808663	      2.58571729	      0.00000000	     21.98144412	     -4.14753748	     -2.90731931	     -5.44279944	      3.96720003	      0.27385676	      0.00000000	    -12.50612023	      5.03869779	      3.23051701
      0.06000000	      0.89497826	     -4.52092662	     -3.20497102	      0.12348588	      0.90876792	      0.02163507	    -14.84745475	      7.48370759	      0.38987350	    -12.61829400	     10.96073563	      2.94451825	      0.00000000	     21.81493839	     -3.80801425	     -2.91153320	     -6.42733197	      3.04890164	      0.23800058	      0.00000000	    -12.42413610	      4.95207798	      3.21793205
      0.07000000	      0.94847293	     -4.29480530	     -3.19739030	      0.12475108	      0.90744940	      0.01998551	    -15.15071905	      7.04174390	      0.00909749	    -13.59032120	     10.91385766	      3.29306911	      0.00000000	     21.61068088	     -3.34613770	     -2.86895815	     -7.36626083	      2.57455281	      0.37023603	      0.00000000	    -12.33929661	      4.81080181	      3.12582074
      0.08000000	      1.02319077	     -3.95967788	     -3.17605731	      0.12619229	      0.90631362	      0.01816399	    -15.38599067	      6.46166130	     -0.47403782	    -14.72032553	     10.81429477	      3.74739016	      0.00000000	     21.32402576	     -2.74167280	     -2.76264347	     -8.17048668	      1.81560930	     -0.09232805	      0.00000000	    -12.24434521	      4.56047595	      3.02110595
      0.09000000	      1.04772967	     -3.60188315	     -3.13929066	      0.12788555	      0.90539717	      0.01640502	    -15.48778801	      5.87228130	     -0.97763259	    -16.01717683	     10.43197071	      4.03536350	      0.00000000	     21.10188781	     -2.11982242	     -2.64330241	     -8.94296659	      0.39799232	     -0.92144589	      0.00000000	    -12.05004493	      4.26920069	      2.84930690
      0.10000000	      1.08628260	     -3.23846544	     -2.99881258	      0.12968784	      0.90453491	      0.01468041	    -15.53291470	      5.30607209	     -1.52811335	    -17.43576756	      9.93417182	      4.27992837	      0.00000000	     20.88445509	     -1.48604800	     -2.41167543	     -9.70872968	     -1.19818458	     -1.84485672	      0.00000000	    -11.85958484	      3.95565615	      2.58783510
      0.11000000	      1.11388067	     -2.94247011	     -2.80206657	      0.13133586	      0.90372536	      0.01301326	    -15.40802863	      4.84857261	     -2.16692379	    -19.15358849	      9.08862167	      4.30434064	      0.00000000	     20.70474065	     -0.94222817	     -2.11179956	    -10.51668472	     -2.66151973	     -2.68288789	      0.00000000	    -11.68968410	      3.70960753	      2.24643502
      0.12000000	      1.10415005	     -2.66247923	     -2.54574892	      0.13306329	      0.90319659	      0.01133894	    -15.12902544	      4.43754170	     -2.88534542	    -21.08090172	      8.05609356	      4.05838202	      0.00000000	     20.59596080	     -0.41693442	     -1.81893436	    -11.43075929	     -3.69091138	     -3.34898791	      0.00000000	    -11.46510946	      3.47522003	      1.84933511
      0.13000000	      1.13108584	     -2.31196844	     -2.23987537	      0.13472851	      0.90302088	      0.00943497	    -14.69943330	      3.92350792	     -3.79095076	    -23.25409873	      6.69046189	      3.69620991	      0.00000000	     20.49897541	      0.20706767	     -1.45645887	    -12.57301618	     -3.77134530	     -3.68026363	      0.00000000	    -11.28796238	      3.18632432	      1.39044081
      0.14000000	      1.14758573	     -1.86049232	     -1.84426659	      0.13624360	      0.90314616	      0.00734023	    -14.11163824	      3.28486405	     -4.65976709	    -25.63008044	      5.10491479	      3.48676415	      0.00000000	     20.51172026	      0.96364425	     -1.12210051	    -14.01761928	     -2.98501613	     -3.70458891	      0.00000000	    -11.11895830	      2.79752569	      0.80432816
      0.15000000	      1.30658835	     -1.27123289	     -1.44173378	      0.13772105	      0.90384883	      0.00515209	    -13.54116279	      2.42689617	     -5.44520873	    -28.20095054	      3.37199789	      3.59480518	      0.00000000	     20.33321615	      1.86701508	     -0.79602585	    -15.47749688	     -2.10079665	     -3.75214192	      0.00000000	    -11.12679361	      2.25098005	      0.21191755
      0.16000000	      1.51993945	     -0.61711917	     -1.08949362	      0.13938639	      0.90510295	      0.00310044	    -12.89289161	      1.45456597	     -6.20452292	    -30.98884726	      1.52249119	      3.68389743	      0.00000000	     19.92499634	      2.81895770	     -0.28561099	    -16.71680628	     -1.27226227	     -3.86987889	      0.00000000	    -11.18105425	      1.62268724	     -0.35043890
      0.17000000	      1.79878799	      0.02701821	     -0.77758867	      0.14094519	      0.90643942	      0.00125331	    -12.15523139	      0.46712113	     -6.77249807	    -34.07086874	     -0.11808272	      3.87921488	      0.00000000	     19.30579885	      3.73678664	      0.24967095	    -17.69773817	     -0.43162009	     -3.96566747	      0.00000000	    -11.32047779	      0.98535754	     -0.87182843
      0.18000000	      2.04580194	      0.65072274	     -0.42947608	      0.14243518	      0.90763458	     -0.00059514	    -11.28039916	     -0.49763217	     -7.32903496	    -37.37565216	     -1.54678124	      4.09252855	      0.00000000	     18.52701908	      4.61756919	      0.72851806	    -18.26795169	      0.36126265	     -3.92795781	      0.00000000	    -11.41586090	      0.38387475	     -1.41600192
      0.19000000	      2.18289920	      1.20582398	      0.03191190	      0.14401149	      0.90882538	     -0.00262233	    -10.20323991	     -1.41221119	     -8.03250914	    -40.75791304	     -3.05538098	      4.06516951	      0.00000000	     17.68873137	      5.43581180	      1.14154320	    -18.46852598	      1.02435671	     -3.76598144	      0.00000000	    -11.35478150	     -0.11276824	     -2.04895856
      0.20000000	      2.35382549	      1.67057015	      0.13049431	      0.14491741	      0.91000562	     -0.00412189	     -8.88059332	     -2.25551702	     -8.26492516	    -44.43947966	     -4.41977235	      3.42796425	      0.00000000	     16.72626316	      6.00537921	      0.94069688	    -18.42729076	      1.67390652	     -3.45544514	      0.00000000	    -11.43542146	     -0.55397311	     -2.30165993
      0.21000000	      2.53377899	      1.99970185	      0.22544321	      0.14553559	      0.91115407	     -0.00541612	     -7.44174044	     -2.89089638	     -8.26494678	    -48.13745095	     -5.80571727	      2.60077161	      0.00000000	     15.74933642	      6.40958013	      0.65427266	    -18.34531954	      2.24348029	     -3.05358056	      0.00000000	    -11.56533533	     -0.85826059	     -2.52786468
      0.22000000	      2.59820071	      2.25498979	      0.24211178	      0.14595302	      0.91213340	     -0.00656114	     -5.76878309	     -3.47066942	     -8.22412881	    -51.77566432	     -7.28699666	      1.78890122	      0.00000000	     14.83482790	      6.73967094	      0.39244884	    -18.18912723	      2.90981576	     -2.77003180	      0.00000000	    -11.58192451	     -1.08406434	     -2.73262988
      0.23000000	      2.70426668	      2.51026877	      0.16939848	      0.14631046	      0.91336267	     -0.00770357	     -4.15965187	     -4.05995119	     -8.18929111	    -55.10795556	     -8.35821317	      0.87175735	      0.00000000	     13.72815791	      7.10017546	      0.33611136	    -17.68990165	      3.32529217	     -2.81199160	      0.00000000	    -11.65814457	     -1.29834734	     -2.85663025
